<?xml version="1.0" standalone="no"?>
<!DOCTYPE svg PUBLIC "-//W3C//DTD SVG 20010904//EN"
 "http://www.w3.org/TR/2001/REC-SVG-20010904/DTD/svg10.dtd">
<svg version="1.0" xmlns="http://www.w3.org/2000/svg"
 width="1024.000000pt" height="1024.000000pt" viewBox="0 0 1024.000000 1024.000000"
 preserveAspectRatio="xMidYMid meet">
<metadata>
Created by potrace 1.14, written by Peter Selinger 2001-2017
</metadata>
<g transform="translate(0.000000,1024.000000) scale(0.100000,-0.100000)"
fill="#000000" stroke="none">
<path d="M4858 10115 c-1 -1 -56 -6 -121 -9 -65 -4 -126 -9 -135 -11 -9 -1
-44 -6 -77 -9 -368 -41 -797 -145 -1170 -286 -77 -29 -144 -56 -149 -61 -6 -5
-16 -9 -23 -9 -7 0 -56 -21 -110 -46 -54 -25 -116 -54 -138 -64 -55 -24 -293
-153 -385 -208 -169 -102 -440 -290 -535 -371 -17 -14 -51 -42 -75 -61 -189
-150 -452 -411 -646 -640 -563 -666 -962 -1520 -1099 -2350 -23 -138 -24 -140
-30 -195 -4 -27 -8 -61 -10 -75 -4 -28 -12 -109 -25 -250 -8 -94 -5 -698 4
-755 2 -16 7 -66 11 -110 3 -44 8 -87 10 -95 2 -8 7 -37 10 -65 4 -27 8 -59
10 -70 1 -11 6 -42 10 -70 15 -113 98 -471 143 -620 324 -1074 982 -1989 1903
-2648 233 -166 523 -334 779 -451 177 -81 176 -81 275 -119 199 -78 243 -92
550 -182 117 -34 441 -98 603 -119 23 -4 59 -8 80 -11 180 -23 326 -30 647
-29 306 0 348 3 655 39 25 3 97 15 160 26 886 154 1703 540 2400 1133 157 134
440 422 581 591 484 582 821 1241 1005 1963 40 157 95 431 108 542 3 25 13
108 23 185 25 210 24 823 -2 1035 -2 19 -7 55 -10 80 -13 105 -17 132 -41 270
-65 373 -194 809 -325 1097 -10 23 -19 44 -19 47 0 2 -29 65 -65 140 -256 529
-568 970 -980 1381 -520 519 -1123 907 -1805 1158 -164 61 -424 141 -520 161
-14 3 -74 17 -135 30 -109 25 -303 59 -400 71 -27 4 -61 8 -74 10 -33 6 -131
15 -249 24 -93 7 -607 13 -614 6z"/>
</g>
</svg>
